HIERARCHY
ROOT Hips
{
 OFFSET 0.000000 0.000000 0.000000
 CHANNELS 6 Xposition Yposition Zposition Yrotation Xrotation Zrotation
 JOINT Chest
 {
  OFFSET 0.000000 9.588913 -0.003946
  CHANNELS 3 Yrotation Xrotation Zrotation
  JOINT Chest2
  {
   OFFSET 0.000000 9.541882 0.008053
   CHANNELS 3 Yrotation Xrotation Zrotation
   JOINT Chest3
   {
    OFFSET 0.000000 9.501360 0.000000
    CHANNELS 3 Yrotation Xrotation Zrotation
    JOINT Chest4
    {
     OFFSET 0.000000 9.491660 0.000000
     CHANNELS 3 Yrotation Xrotation Zrotation
     JOINT Neck
     {
      OFFSET 0.000000 14.331917 0.000000
      CHANNELS 3 Yrotation Xrotation Zrotation
      JOINT Head
      {
       OFFSET 0.000000 8.884799 0.017034
       CHANNELS 3 Yrotation Xrotation Zrotation
       End Site
       {
        OFFSET 0.000000 16.896195 0.008993
       }
      }
     }
     JOINT RightCollar
     {
      OFFSET -2.923010 9.499495 0.000000
      CHANNELS 3 Yrotation Xrotation Zrotation
      JOINT RightShoulder
      {
       OFFSET -13.795216 0.000000 0.000000
       CHANNELS 3 Yrotation Xrotation Zrotation
       JOINT RightElbow
       {
        OFFSET -30.272209 0.000000 0.000000
        CHANNELS 3 Yrotation Xrotation Zrotation
        JOINT RightWrist
        {
         OFFSET -24.478199 0.000000 0.000000
         CHANNELS 3 Yrotation Xrotation Zrotation
         End Site
         {
          OFFSET -18.090752 0.000000 0.000000
         }
        }
       }
      }
     }
     JOINT LeftCollar
     {
      OFFSET 2.923010 9.499495 0.000000
      CHANNELS 3 Yrotation Xrotation Zrotation
      JOINT LeftShoulder
      {
       OFFSET 13.795216 0.000000 0.000000
       CHANNELS 3 Yrotation Xrotation Zrotation
       JOINT LeftElbow
       {
        OFFSET 30.272209 0.000000 0.000000
        CHANNELS 3 Yrotation Xrotation Zrotation
        JOINT LeftWrist
        {
         OFFSET 24.478199 0.000000 0.000000
         CHANNELS 3 Yrotation Xrotation Zrotation
         End Site
         {
          OFFSET 18.090752 0.000000 0.000000
         }
        }
       }
      }
     }
    }
   }
  }
 }
 JOINT RightHip
 {
  OFFSET -7.826875 0.019532 0.001973
  CHANNELS 3 Yrotation Xrotation Zrotation
  JOINT RightKnee
  {
   OFFSET 0.000000 -40.546152 -0.001885
   CHANNELS 3 Yrotation Xrotation Zrotation
   JOINT RightAnkle
   {
    OFFSET 0.000000 -39.417092 -0.003189
    CHANNELS 3 Yrotation Xrotation Zrotation
    JOINT RightToe
    {
     OFFSET 0.000000 -7.579396 17.243563
     CHANNELS 3 Yrotation Xrotation Zrotation
     End Site
     {
      OFFSET 0.000000 -1.500329 6.694466
     }
    }
   }
  }
 }
 JOINT LeftHip
 {
  OFFSET 7.826875 0.019532 0.001973
  CHANNELS 3 Yrotation Xrotation Zrotation
  JOINT LeftKnee
  {
   OFFSET 0.000000 -40.546152 -0.001885
   CHANNELS 3 Yrotation Xrotation Zrotation
   JOINT LeftAnkle
   {
    OFFSET 0.000000 -39.417092 -0.003189
    CHANNELS 3 Yrotation Xrotation Zrotation
    JOINT LeftToe
    {
     OFFSET 0.000000 -7.579396 17.243563
     CHANNELS 3 Yrotation Xrotation Zrotation
     End Site
     {
      OFFSET 0.000000 -1.500329 6.694466
     }
    }
   }
  }
 }
}
MOTION
Frames: 11
Frame Time: 0.008333
10.253684 87.475521 0.488941 24.477733 -3.130258 -0.003957 -5.313672 12.879244 1.663761 -3.096251 7.234315 0.879323 -3.860549 9.049451 1.039454 -3.096288 7.234338 0.879343 16.244691 21.645680 -9.385822 21.661562 -0.004923 -15.050090 10.129825 -0.652704 -13.543340 19.803804 -63.112662 33.236664 108.371619 -34.842957 18.097619 25.946905 -10.091818 -35.190998 -19.348442 -8.193656 1.492940 -2.077221 -47.929254 -89.471412 -27.294318 5.788056 -23.915871 -42.862799 -1.214934 32.643760 -1.015369 -8.758838 -8.305061 4.674808 12.830300 3.164690 19.226580 -4.059958 6.873033 0.143560 0.179051 0.087594 19.565817 -5.869973 10.106913 0.400867 18.283781 2.715726 -1.113324 -8.875176 -11.859937 -0.116800 -0.509377 -0.044256
10.191412 87.465402 0.236006 24.117135 -2.970368 0.092353 -5.153387 13.107785 1.581285 -3.017221 7.392918 0.857665 -3.761952 9.247365 1.012654 -3.017260 7.392942 0.857685 16.112663 21.429727 -9.542495 21.543434 -0.278542 -15.213285 10.400013 -0.309920 -13.551212 20.759526 -63.664611 33.347663 108.107733 -33.756501 17.767025 25.812590 -9.580223 -34.831168 -19.686111 -8.194316 1.627600 -2.096933 -48.864030 -89.528631 -26.209457 5.398678 -22.414400 -43.124230 -1.289464 32.432576 -0.876109 -9.102411 -8.331491 4.662693 12.739615 3.146317 19.158329 -3.760524 6.996759 -0.008048 0.234607 0.019501 19.615476 -6.172183 9.876890 0.393285 18.502248 2.736838 -0.952164 -8.848213 -11.795665 -0.123011 -0.508709 -0.062657
10.128110 87.457281 -0.016737 23.758142 -2.824026 0.162089 -4.987834 13.345570 1.513330 -2.936945 7.558906 0.837242 -3.661774 9.454524 0.987439 -2.936984 7.558930 0.837266 15.972892 21.201282 -9.704678 21.417790 -0.567703 -15.381598 10.652768 0.041032 -13.576996 21.795805 -64.256275 33.463113 107.855315 -32.609140 17.389007 25.656644 -9.093443 -34.392105 -20.001384 -8.212129 1.777717 -2.129875 -49.783100 -89.562852 -25.152004 4.970425 -20.959558 -43.342480 -1.373898 32.308379 -0.692803 -9.420094 -8.348533 4.671881 12.612979 3.124751 19.096394 -3.430901 7.131418 -0.117850 0.267804 -0.030000 19.686268 -6.469928 9.679884 0.389292 18.709153 2.756521 -0.812978 -8.818588 -11.729065 -0.134251 -0.501389 -0.077935
10.059139 87.450644 -0.259659 23.449315 -2.738559 0.152320 -4.851562 13.651433 1.504948 -2.856088 7.732424 0.815146 -3.560912 9.671093 0.960155 -2.856131 7.732450 0.815175 15.829096 20.950084 -9.866352 21.287923 -0.885386 -15.549014 10.882147 0.398472 -13.614732 22.889367 -64.910915 33.596621 107.583317 -31.491647 17.020207 25.503367 -8.623502 -33.870781 -20.297388 -8.241465 1.954401 -2.189787 -50.689972 -89.548636 -24.131282 4.515583 -19.559686 -43.508044 -1.486966 32.237214 -0.517801 -9.704640 -8.385390 4.712767 12.458867 3.091010 19.555275 -3.052630 7.256056 0.027156 0.203232 0.032891 19.729240 -6.740506 9.583691 0.393788 18.910291 2.776077 -0.692138 -8.804597 -11.664113 -0.155598 -0.470503 -0.091737
9.994996 87.443799 -0.512389 23.130920 -2.632563 0.168236 -4.692430 13.949711 1.462960 -2.771975 7.914436 0.791423 -3.456017 9.898274 0.930915 -2.772028 7.914469 0.791459 15.674956 20.665846 -10.026019 21.145408 -1.245827 -15.712078 11.066294 0.740544 -13.667751 23.969090 -65.640392 33.791653 107.282639 -30.491679 16.705049 25.364318 -8.160006 -33.268147 -20.598330 -8.290827 2.169603 -2.310528 -51.587800 -89.443517 -23.151510 4.031199 -18.221295 -43.609437 -1.640870 32.188165 -0.291089 -9.987502 -8.397629 4.741136 12.308503 3.038570 19.643135 -2.685390 7.408369 0.056518 0.174081 0.048701 19.821713 -7.028480 9.456024 0.408705 19.107468 2.793568 -0.610465 -8.782354 -11.596746 -0.170012 -0.444359 -0.096178
9.936360 87.435532 -0.776993 22.801569 -2.491744 0.215816 -4.505412 14.231055 1.388145 -2.684635 8.102282 0.768132 -3.347076 10.132755 0.902327 -2.684694 8.102317 0.768171 15.508735 20.350750 -10.185245 20.988643 -1.646008 -15.872200 11.194629 1.060139 -13.744645 25.010852 -66.440471 34.070068 106.959190 -29.629434 16.451701 25.258841 -7.678681 -32.594277 -20.907526 -8.363324 2.409251 -2.550987 -52.488170 -89.185573 -22.197948 3.488609 -16.946400 -43.655440 -1.830210 32.141233 -0.016947 -10.279488 -8.381717 4.745831 12.169448 2.976184 19.289798 -2.333412 7.572994 -0.055606 0.195187 0.005984 19.968681 -7.346930 9.285687 0.431722 19.303697 2.806379 -0.565001 -8.754735 -11.526644 -0.176790 -0.422737 -0.090864
9.878348 87.424960 -1.045120 22.497337 -2.342043 0.245587 -4.324170 14.526822 1.328561 -2.597378 8.287676 0.746060 -3.238213 10.364190 0.875365 -2.597434 8.287711 0.746098 15.339290 20.017134 -10.342071 20.828489 -2.068662 -16.029325 11.282755 1.375098 -13.847150 26.032111 -67.296152 34.417079 106.619430 -28.853985 16.250065 25.184881 -7.135013 -31.881777 -21.202624 -8.446079 2.646114 -2.954515 -53.405042 -88.740626 -21.255570 2.869646 -15.728977 -43.654637 -2.035579 32.089831 0.260263 -10.589606 -8.368879 4.743163 12.040755 2.914695 18.978878 -1.975029 7.725420 -0.122410 0.200137 -0.015020 20.125187 -7.690123 9.130249 0.465979 19.504348 2.814215 -0.544890 -8.739530 -11.454015 -0.182535 -0.390310 -0.080998
9.820611 87.411097 -1.317739 22.219654 -2.165366 0.257971 -4.152915 14.819020 1.280950 -2.513185 8.462771 0.724800 -3.133178 10.582772 0.849503 -2.513236 8.462804 0.724838 15.176126 19.676915 -10.491347 20.675453 -2.497753 -16.179593 11.354761 1.692947 -13.966170 27.021127 -68.163217 34.821197 106.280259 -28.068176 16.070355 25.110570 -6.535769 -31.174846 -21.469008 -8.524280 2.869482 -3.501258 -54.342775 -88.142234 -20.317906 2.198115 -14.557663 -43.596558 -2.245199 32.027372 0.529975 -10.937793 -8.359861 4.730996 11.925251 2.859099 18.727421 -1.614500 7.867707 -0.153899 0.193781 -0.021590 20.285614 -8.077759 8.982269 0.512952 19.715448 2.816203 -0.545819 -8.740553 -11.374225 -0.187727 -0.347600 -0.070345
9.760897 87.393371 -1.593551 21.943271 -1.949926 0.240098 -3.955972 15.095426 1.255175 -2.431636 8.622008 0.705123 -3.031422 10.781558 0.825739 -2.431682 8.622042 0.705159 15.021538 19.340664 -10.629112 20.530814 -2.920426 -16.318336 11.418292 2.016885 -14.089244 27.956694 -69.016207 35.289222 105.966087 -27.171067 15.884192 25.033205 -5.933036 -30.520330 -21.716070 -8.585103 3.080476 -4.118842 -55.298019 -87.464335 -19.384237 1.538997 -13.419238 -43.469129 -2.465384 31.947536 0.799541 -11.329781 -8.334127 4.703371 11.817479 2.813442 18.532790 -1.277438 8.005932 -0.179727 0.206062 -0.030177 20.471849 -8.527650 8.848603 0.566399 19.941360 2.812897 -0.546130 -8.747811 -11.279280 -0.208417 -0.305573 -0.069313
9.703164 87.371763 -1.871692 21.728782 -1.696111 0.212946 -3.791283 15.353624 1.226930 -2.348417 8.762873 0.689354 -2.927481 10.957413 0.807098 -2.348462 8.762910 0.689388 14.868863 19.015548 -10.753143 20.384638 -3.329630 -16.440215 11.463662 2.346968 -14.209547 28.821621 -69.845234 35.835799 105.696795 -26.109969 15.687098 24.967913 -5.348906 -29.953707 -21.968455 -8.623912 3.283294 -4.753680 -56.257874 -86.744401 -18.467547 0.949440 -12.313247 -43.258774 -2.704813 31.857720 0.992385 -11.760740 -8.315813 4.663523 11.705639 2.776151 18.435360 -0.924418 8.133799 -0.169738 0.197756 -0.028876 20.625219 -9.032063 8.705152 0.617379 20.185942 2.806286 -0.565839 -8.789002 -11.178766 -0.211816 -0.247028 -0.065821
9.646071 87.346686 -2.149346 21.547265 -1.405398 0.168267 -3.625244 15.593653 1.203197 -2.260831 8.887685 0.677950 -2.817951 11.113231 0.794197 -2.260874 8.887726 0.677984 14.713202 18.702473 -10.861064 20.229475 -3.725730 -16.540465 11.489387 2.670280 -14.324260 29.613358 -70.624366 36.456627 105.485258 -24.893475 15.479109 24.919768 -4.773727 -29.476891 -22.244610 -8.640625 3.491394 -5.402549 -57.210781 -85.958154 -17.582973 0.435311 -11.247803 -42.947162 -2.967718 31.768065 1.117445 -12.218612 -8.277541 4.613443 11.580970 2.740695 18.389878 -0.583326 8.260647 -0.158286 0.201225 -0.034480 20.768307 -9.593960 8.561348 0.657588 20.454309 2.794815 -0.585821 -8.848380 -11.065989 -0.213461 -0.188906 -0.068177
